<?xml version="1.0" encoding="UTF-8"?>
<svg id="Layer_2" data-name="Layer 2" xmlns="http://www.w3.org/2000/svg" viewBox="0 0 391.67 221.36">
  <defs>
    <style>
      .cls-1 {
        fill: #010101;
        stroke-width: 0px;
      }
    </style>
  </defs>
  <g id="Livello_1" data-name="Livello 1">
    <g>
      <g>
        <path class="cls-1" d="M34.85,209.69c-.03,6.44,5.18,11.67,11.62,11.67h51.68c6.39,0,11.59-5.17,11.62-11.56l.03-6.82H34.88l-.03,6.72Z"/>
        <path class="cls-1" d="M114.53,170.56h-29.43c-1.99,0-3.61-1.62-3.61-3.61v-83.19l-18.39-.1v83.28c0,1.99-1.62,3.61-3.61,3.61h-30.17c-.48,0-.87.39-.87.87l-.08,14.48c0,1.67,1.35,3.04,3.02,3.04h80.91c1.66,0,3.01-1.34,3.02-3.01l.08-14.5c0-.48-.39-.88-.87-.88Z"/>
        <path class="cls-1" d="M71.31,0C31.11.32-.71,33.02.01,73.21c.25,13.85,4.41,26.74,11.43,37.61,4.83,7.48,8.51,15.65,10.77,24.27l6.56,25.08h16.11c1.25,0,2.17-1.18,1.84-2.39l-5.58-20.89-.41-1.56c-3.01-11.51-8.08-22.36-14.76-32.22-1.28-1.9-2.45-3.88-3.49-5.93-3.71-7.32-5.82-15.58-5.87-24.34-.18-30.23,24.41-54.97,54.64-54.97,30.17,0,54.64,24.46,54.64,54.64,0,8.88-2.12,17.26-5.87,24.67-.95,1.86-1.99,3.67-3.14,5.4-7.09,10.73-12.43,22.51-15.68,34.95h0s-5.41,20.24-5.41,20.24c-.32,1.21.59,2.4,1.84,2.4h16.11s5.76-22.02,5.76-22.02c2.38-9.1,6.25-17.77,11.59-25.52,7.99-11.58,12.66-25.62,12.66-40.76C143.76,31.99,111.27-.31,71.31,0Z"/>
      </g>
      <g>
        <path class="cls-1" d="M188.06,62.63c-4.54,0-8.06,1.71-10.55,5.12-2.49,3.41-3.74,8.17-3.74,14.27,0,12.69,4.76,19.04,14.29,19.04,4,0,8.84-1,14.52-3v10.12c-4.67,1.95-9.89,2.92-15.65,2.92-8.28,0-14.61-2.51-19-7.53-4.39-5.02-6.58-12.23-6.58-21.63,0-5.92,1.08-11.1,3.23-15.55,2.15-4.45,5.25-7.86,9.28-10.24,4.04-2.37,8.77-3.56,14.19-3.56s11.08,1.34,16.66,4.01l-3.89,9.81c-2.13-1.01-4.27-1.89-6.42-2.65-2.15-.75-4.27-1.13-6.35-1.13Z"/>
        <path class="cls-1" d="M263.03,81.78c0,9.42-2.34,16.66-7.01,21.72-4.67,5.06-11.37,7.59-20.09,7.59s-15.42-2.53-20.09-7.59-7.01-12.33-7.01-21.8,2.34-16.71,7.03-21.7c4.68-5,11.4-7.49,20.15-7.49s15.44,2.52,20.07,7.55c4.63,5.04,6.95,12.28,6.95,21.72ZM221.5,81.78c0,6.36,1.21,11.15,3.62,14.37,2.41,3.22,6.02,4.83,10.82,4.83,9.63,0,14.44-6.4,14.44-19.19s-4.79-19.23-14.36-19.23c-4.8,0-8.42,1.62-10.86,4.85-2.44,3.23-3.66,8.03-3.66,14.38Z"/>
        <path class="cls-1" d="M323.5,110.32h-15.34l-24.76-43.06h-.35c.49,7.6.74,13.03.74,16.27v26.78h-10.78v-56.92h15.22l24.72,42.63h.27c-.39-7.4-.58-12.63-.58-15.69v-26.94h10.86v56.92Z"/>
        <path class="cls-1" d="M370.45,94.51c0,5.14-1.85,9.19-5.55,12.15-3.7,2.96-8.84,4.44-15.44,4.44-6.07,0-11.45-1.14-16.12-3.43v-11.21c3.84,1.71,7.09,2.92,9.75,3.62,2.66.7,5.09,1.05,7.3,1.05,2.65,0,4.68-.51,6.09-1.52,1.41-1.01,2.12-2.52,2.12-4.52,0-1.12-.31-2.11-.93-2.98-.62-.87-1.54-1.71-2.74-2.51-1.21-.8-3.67-2.09-7.38-3.85-3.48-1.64-6.09-3.2-7.82-4.71-1.74-1.5-3.13-3.26-4.17-5.26-1.04-2-1.56-4.33-1.56-7.01,0-5.03,1.71-8.99,5.12-11.87,3.41-2.88,8.13-4.32,14.15-4.32,2.96,0,5.78.35,8.47,1.05,2.69.7,5.5,1.69,8.43,2.96l-3.89,9.38c-3.04-1.25-5.55-2.11-7.53-2.61-1.99-.49-3.94-.74-5.86-.74-2.28,0-4.04.53-5.26,1.6-1.22,1.06-1.83,2.45-1.83,4.17,0,1.06.25,1.99.74,2.78.49.79,1.28,1.56,2.36,2.3,1.08.74,3.63,2.07,7.65,3.99,5.32,2.54,8.97,5.09,10.94,7.65,1.97,2.56,2.96,5.69,2.96,9.4Z"/>
        <path class="cls-1" d="M379.6,110.32v-56.92h12.07v56.92h-12.07Z"/>
        <path class="cls-1" d="M197.02,181.27h-3.16v-41.97h-14.6v-2.95h32.36v2.95h-14.6v41.97Z"/>
        <path class="cls-1" d="M258.77,181.27h-24.55v-44.92h24.55v2.89h-21.42v16.99h20.22v2.89h-20.22v19.27h21.42v2.89Z"/>
        <path class="cls-1" d="M302.8,138.53c-5.63,0-10.07,1.8-13.3,5.41-3.24,3.61-4.85,8.54-4.85,14.81s1.53,11.39,4.58,14.93c3.05,3.54,7.42,5.32,13.09,5.32,3.77,0,7.23-.48,10.39-1.44v2.77c-2.97,1.04-6.68,1.57-11.12,1.57-6.31,0-11.28-2.04-14.9-6.11-3.63-4.08-5.44-9.77-5.44-17.08,0-4.57.87-8.59,2.6-12.08,1.73-3.48,4.22-6.17,7.47-8.07,3.25-1.89,7.02-2.84,11.32-2.84s8.31.82,11.77,2.46l-1.26,2.83c-3.28-1.64-6.72-2.46-10.32-2.46Z"/>
        <path class="cls-1" d="M370.24,181.27h-3.17v-22.09h-26.24v22.09h-3.13v-44.92h3.13v19.94h26.24v-19.94h3.17v44.92Z"/>
      </g>
    </g>
  </g>
</svg>